<svg width="278" height="94" viewBox="0 0 278 94" fill="none" xmlns="http://www.w3.org/2000/svg">
<path d="M76.64 85.48C75.7067 85.48 74.8133 85.3467 73.96 85.08C73.1333 84.84 72.4133 84.3067 71.8 83.48C71.88 82.84 72.0667 81.9067 72.36 80.68C72.68 79.4533 73.0667 78.0667 73.52 76.52C73.9733 74.9467 74.4533 73.3333 74.96 71.68C75.4667 70.0267 75.96 68.4533 76.44 66.96C76.9467 65.44 77.3867 64.12 77.76 63C78.16 61.8533 78.4533 61.0267 78.64 60.52C78.72 60.3067 78.8533 59.9867 79.04 59.56C79.2267 59.1333 79.4667 58.6933 79.76 58.24C80.0533 57.7867 80.3867 57.4133 80.76 57.12C81.16 56.8 81.5867 56.64 82.04 56.64C82.4933 56.64 83 56.8267 83.56 57.2C82.7333 59.0667 81.8933 61.1467 81.04 63.44C80.2133 65.7067 79.4133 68.0533 78.64 70.48C77.8933 72.88 77.2 75.2267 76.56 77.52C75.9467 79.7867 75.44 81.8667 75.04 83.76C75.2533 83.84 75.5467 83.8933 75.92 83.92C76.32 83.9733 76.6933 84 77.04 84C78.7733 84 80.4267 83.5733 82 82.72C83.5733 81.8933 85.0133 80.7867 86.32 79.4C87.6533 77.9867 88.8133 76.4133 89.8 74.68C90.7867 72.92 91.5467 71.12 92.08 69.28C92.6133 67.44 92.88 65.68 92.88 64C92.88 61.84 92.5067 60.0933 91.76 58.76C91.04 57.4 90.04 56.4133 88.76 55.8C87.48 55.16 86.0133 54.84 84.36 54.84C82.6267 54.84 81.0667 55.16 79.68 55.8C78.2933 56.4133 77.2 57.2667 76.4 58.36C75.6267 59.4267 75.24 60.6533 75.24 62.04C75.24 62.3333 75.2667 62.6533 75.32 63C75.3733 63.32 75.4667 63.64 75.6 63.96C74.4533 63.96 73.6267 63.72 73.12 63.24C72.64 62.7333 72.4 62.12 72.4 61.4C72.4 60.4667 72.7333 59.52 73.4 58.56C74.0933 57.6 75.04 56.72 76.24 55.92C77.4667 55.0933 78.88 54.44 80.48 53.96C82.08 53.4533 83.8133 53.2 85.68 53.2C88.2933 53.2 90.3867 53.7067 91.96 54.72C93.5333 55.7067 94.6667 57.0533 95.36 58.76C96.08 60.44 96.44 62.32 96.44 64.4C96.44 66.6933 96.0667 68.8933 95.32 71C94.6 73.08 93.5867 75 92.28 76.76C91 78.52 89.5067 80.0533 87.8 81.36C86.12 82.6667 84.32 83.68 82.4 84.4C80.5067 85.12 78.5867 85.48 76.64 85.48ZM100.749 83.76C99.0427 83.76 97.7227 83.2933 96.7894 82.36C95.8827 81.4533 95.4294 80.3067 95.4294 78.92C95.4294 77.7467 95.7227 76.5067 96.3094 75.2C96.9227 73.8667 97.736 72.6267 98.7494 71.48C99.7627 70.3067 100.883 69.36 102.109 68.64C103.336 67.92 104.563 67.56 105.789 67.56C106.483 67.56 107.136 67.7467 107.749 68.12C108.389 68.4667 108.709 69.1733 108.709 70.24C108.709 71.2533 108.416 72.2 107.829 73.08C107.243 73.96 106.456 74.7467 105.469 75.44C104.483 76.1333 103.389 76.7067 102.189 77.16C101.016 77.5867 99.8294 77.8667 98.6294 78C98.6027 78.1067 98.576 78.2267 98.5494 78.36C98.5494 78.4667 98.5494 78.6533 98.5494 78.92C98.5494 79.0533 98.5627 79.2933 98.5894 79.64C98.6427 79.96 98.7627 80.3067 98.9494 80.68C99.136 81.0533 99.4427 81.3733 99.8694 81.64C100.296 81.9067 100.883 82.04 101.629 82.04C102.749 82.04 103.869 81.7333 104.989 81.12C106.136 80.48 107.203 79.64 108.189 78.6C109.203 77.56 110.043 76.4 110.709 75.12L111.509 75.76C110.789 77.36 109.856 78.76 108.709 79.96C107.589 81.16 106.336 82.0933 104.949 82.76C103.589 83.4267 102.189 83.76 100.749 83.76ZM99.0694 76.52C99.7627 76.44 100.536 76.2 101.389 75.8C102.243 75.4 103.056 74.8933 103.829 74.28C104.629 73.6667 105.283 73 105.789 72.28C106.296 71.5333 106.549 70.7867 106.549 70.04C106.549 69.7467 106.496 69.5467 106.389 69.44C106.283 69.3333 106.109 69.28 105.869 69.28C105.256 69.28 104.616 69.5067 103.949 69.96C103.283 70.3867 102.629 70.96 101.989 71.68C101.349 72.3733 100.776 73.1467 100.269 74C99.7627 74.8533 99.3627 75.6933 99.0694 76.52ZM112.702 83.56C111.716 83.56 111.022 83.1067 110.622 82.2C110.249 81.32 110.062 80.1733 110.062 78.76C110.062 78.4667 110.076 77.9467 110.102 77.2C110.129 76.4267 110.169 75.36 110.222 74C110.249 73.2 110.329 72.6533 110.462 72.36C110.622 72.0667 111.049 71.92 111.742 71.92C112.382 71.92 112.756 72.0533 112.862 72.32C112.996 72.56 113.062 73.0667 113.062 73.84C113.062 74.64 113.022 75.4933 112.942 76.4C112.889 77.3067 112.862 78.1867 112.862 79.04C112.862 79.8667 112.902 80.48 112.982 80.88C113.062 81.2533 113.262 81.44 113.582 81.44C114.062 81.44 114.582 81.1867 115.142 80.68C115.702 80.1467 116.262 79.48 116.822 78.68C117.409 77.8533 117.956 76.9733 118.462 76.04C118.996 75.08 119.462 74.16 119.862 73.28C119.916 71.4667 120.129 70.2533 120.502 69.64C120.876 69.0267 121.356 68.72 121.942 68.72C122.609 68.72 123.062 68.9333 123.302 69.36C123.542 69.7867 123.662 70.16 123.662 70.48C123.662 70.88 123.556 71.24 123.342 71.56C123.129 71.88 122.916 72.32 122.702 72.88C122.489 73.44 122.382 74.2933 122.382 75.44C122.382 75.8133 122.409 76.2267 122.462 76.68C122.542 77.1067 122.702 77.48 122.942 77.8C123.209 78.0933 123.596 78.24 124.102 78.24C124.636 78.24 125.142 78.0267 125.622 77.6C126.129 77.1467 126.662 76.3733 127.222 75.28L127.662 75.64C127.049 77.1067 126.356 78.1333 125.582 78.72C124.836 79.3067 124.116 79.6 123.422 79.6C122.542 79.6 121.822 79.2533 121.262 78.56C120.729 77.84 120.316 76.9467 120.022 75.88C119.382 77.08 118.649 78.2667 117.822 79.44C117.022 80.6133 116.182 81.5867 115.302 82.36C114.422 83.16 113.556 83.56 112.702 83.56ZM130.788 83.76C129.082 83.76 127.762 83.2933 126.828 82.36C125.922 81.4533 125.468 80.3067 125.468 78.92C125.468 77.7467 125.762 76.5067 126.348 75.2C126.962 73.8667 127.775 72.6267 128.788 71.48C129.802 70.3067 130.922 69.36 132.148 68.64C133.375 67.92 134.602 67.56 135.828 67.56C136.522 67.56 137.175 67.7467 137.788 68.12C138.428 68.4667 138.748 69.1733 138.748 70.24C138.748 71.2533 138.455 72.2 137.868 73.08C137.282 73.96 136.495 74.7467 135.508 75.44C134.522 76.1333 133.428 76.7067 132.228 77.16C131.055 77.5867 129.868 77.8667 128.668 78C128.642 78.1067 128.615 78.2267 128.588 78.36C128.588 78.4667 128.588 78.6533 128.588 78.92C128.588 79.0533 128.602 79.2933 128.628 79.64C128.682 79.96 128.802 80.3067 128.988 80.68C129.175 81.0533 129.482 81.3733 129.908 81.64C130.335 81.9067 130.922 82.04 131.668 82.04C132.788 82.04 133.908 81.7333 135.028 81.12C136.175 80.48 137.242 79.64 138.228 78.6C139.242 77.56 140.082 76.4 140.748 75.12L141.548 75.76C140.828 77.36 139.895 78.76 138.748 79.96C137.628 81.16 136.375 82.0933 134.988 82.76C133.628 83.4267 132.228 83.76 130.788 83.76ZM129.108 76.52C129.802 76.44 130.575 76.2 131.428 75.8C132.282 75.4 133.095 74.8933 133.868 74.28C134.668 73.6667 135.322 73 135.828 72.28C136.335 71.5333 136.588 70.7867 136.588 70.04C136.588 69.7467 136.535 69.5467 136.428 69.44C136.322 69.3333 136.148 69.28 135.908 69.28C135.295 69.28 134.655 69.5067 133.988 69.96C133.322 70.3867 132.668 70.96 132.028 71.68C131.388 72.3733 130.815 73.1467 130.308 74C129.802 74.8533 129.402 75.6933 129.108 76.52ZM143.221 83.2C141.968 83.2 141.088 82.7867 140.581 81.96C140.101 81.1067 139.861 80.1067 139.861 78.96C139.861 77.6533 140.101 76.12 140.581 74.36C141.061 72.6 141.688 70.76 142.461 68.84C143.261 66.8933 144.128 65 145.061 63.16C146.021 61.2933 146.981 59.6133 147.941 58.12C148.901 56.6267 149.781 55.44 150.581 54.56C151.408 53.6533 152.075 53.2 152.581 53.2C152.928 53.2 153.221 53.3867 153.461 53.76C153.701 54.1067 153.888 54.5333 154.021 55.04C154.181 55.52 154.261 55.9733 154.261 56.4C154.261 57.12 154.075 58.0667 153.701 59.24C153.355 60.3867 152.848 61.6533 152.181 63.04C151.541 64.4267 150.768 65.8533 149.861 67.32C148.981 68.76 147.995 70.1333 146.901 71.44C145.835 72.7467 144.688 73.88 143.461 74.84C143.355 75.5067 143.248 76.1733 143.141 76.84C143.061 77.48 143.021 78.0667 143.021 78.6C143.021 79.56 143.181 80.2667 143.501 80.72C143.821 81.1467 144.235 81.36 144.741 81.36C145.408 81.36 146.088 81.0533 146.781 80.44C147.501 79.8 148.181 79 148.821 78.04C149.488 77.0533 150.061 76.04 150.541 75L151.501 75.52C150.355 77.8933 149.075 79.7733 147.661 81.16C146.248 82.52 144.768 83.2 143.221 83.2ZM144.181 72.36C145.088 71.3733 145.941 70.3067 146.741 69.16C147.568 67.9867 148.315 66.8 148.981 65.6C149.675 64.4 150.275 63.24 150.781 62.12C151.288 61 151.675 60 151.941 59.12C152.235 58.2133 152.395 57.4933 152.421 56.96C152.421 56.9333 152.421 56.92 152.421 56.92C152.421 56.8933 152.421 56.8667 152.421 56.84C152.208 56.84 151.861 57.1467 151.381 57.76C150.928 58.3467 150.381 59.16 149.741 60.2C149.101 61.24 148.435 62.4267 147.741 63.76C147.075 65.0933 146.421 66.5067 145.781 68C145.168 69.4667 144.635 70.92 144.181 72.36ZM152.226 83.28C151.026 83.28 150.199 82.88 149.746 82.08C149.319 81.3067 149.106 80.4533 149.106 79.52C149.106 78.6667 149.239 77.8 149.506 76.92C149.773 76.0133 150.133 75.1733 150.586 74.4C151.066 73.6267 151.586 73.0133 152.146 72.56C152.733 72.08 153.319 71.84 153.906 71.84C154.093 71.84 154.306 71.88 154.546 71.96C154.813 72.0133 154.999 72.1067 155.106 72.24C154.786 72.64 154.453 73.1333 154.106 73.72C153.786 74.3067 153.479 74.9333 153.186 75.6C152.919 76.24 152.706 76.8933 152.546 77.56C152.386 78.2267 152.306 78.84 152.306 79.4C152.306 79.9333 152.399 80.3733 152.586 80.72C152.799 81.0667 153.159 81.24 153.666 81.24C154.173 81.24 154.773 80.96 155.466 80.4C156.186 79.8133 156.866 79.1467 157.506 78.4C156.653 77.6267 156.039 76.7867 155.666 75.88C155.293 74.9467 155.106 73.8267 155.106 72.52C155.106 71.96 155.239 71.32 155.506 70.6C155.799 69.88 156.253 69.2533 156.866 68.72C157.506 68.1867 158.359 67.92 159.426 67.92C160.573 67.92 161.373 68.24 161.826 68.88C162.306 69.52 162.546 70.28 162.546 71.16C162.546 72.1467 162.279 73.2533 161.746 74.48C161.239 75.7067 160.626 76.8667 159.906 77.96C160.226 78.12 160.599 78.2 161.026 78.2C161.426 78.2 161.906 78.1067 162.466 77.92C163.026 77.7333 163.573 77.4267 164.106 77C164.639 76.5467 165.066 75.9467 165.386 75.2L166.106 75.72C165.519 77.08 164.733 78.08 163.746 78.72C162.786 79.3333 161.839 79.64 160.906 79.64C160.559 79.64 160.213 79.6133 159.866 79.56C159.519 79.48 159.199 79.3867 158.906 79.28C157.999 80.3467 156.959 81.28 155.786 82.08C154.613 82.88 153.426 83.28 152.226 83.28ZM158.546 77.12C159.186 76.1867 159.733 75.1867 160.186 74.12C160.639 73.0533 160.866 72.0667 160.866 71.16C160.866 70.5467 160.773 70.1067 160.586 69.84C160.399 69.5467 160.119 69.4 159.746 69.4C159.239 69.4 158.719 69.76 158.186 70.48C157.653 71.2 157.386 72.1067 157.386 73.2C157.386 73.76 157.479 74.44 157.666 75.24C157.879 76.04 158.173 76.6667 158.546 77.12ZM162.229 93.2C162.015 93.2 161.789 93.1333 161.549 93C161.309 92.8933 161.109 92.76 160.949 92.6C160.762 92.44 160.655 92.3067 160.629 92.2C161.295 90.2533 161.869 88.56 162.349 87.12C162.802 85.7067 163.189 84.36 163.509 83.08C163.829 81.8267 164.122 80.52 164.389 79.16C164.629 77.7733 164.869 76.2 165.109 74.44C165.375 72.6533 165.669 70.5067 165.989 68C166.042 67.68 166.109 67.4533 166.189 67.32C166.269 67.16 166.522 67.08 166.949 67.08C167.775 67.08 168.375 67.3067 168.749 67.76C169.122 68.1867 169.309 68.6667 169.309 69.2C169.309 69.4667 169.255 69.9333 169.149 70.6C169.069 71.2667 168.935 72.0533 168.749 72.96C169.255 72.1867 169.829 71.4533 170.469 70.76C171.135 70.0667 171.869 69.5067 172.669 69.08C173.469 68.6267 174.335 68.4 175.269 68.4C176.575 68.4 177.655 68.84 178.509 69.72C179.362 70.6 179.789 71.76 179.789 73.2C179.789 74.24 179.549 75.3467 179.069 76.52C178.615 77.6667 177.962 78.76 177.109 79.8C176.255 80.8133 175.229 81.64 174.029 82.28C172.829 82.9467 171.509 83.28 170.069 83.28C169.215 83.28 168.535 83.1733 168.029 82.96C167.522 82.7467 167.269 82.5067 167.269 82.24C167.269 82.0533 167.362 81.9467 167.549 81.92C167.762 81.8667 167.989 81.84 168.229 81.84C169.482 81.8133 170.615 81.5467 171.629 81.04C172.669 80.5333 173.562 79.88 174.309 79.08C175.055 78.2533 175.629 77.3733 176.029 76.44C176.429 75.5067 176.629 74.5867 176.629 73.68C176.629 72.88 176.442 72.1867 176.069 71.6C175.722 71.0133 175.162 70.72 174.389 70.72C173.722 70.72 173.042 70.9333 172.349 71.36C171.682 71.7867 171.055 72.3333 170.469 73C169.882 73.64 169.362 74.32 168.909 75.04C168.455 75.7333 168.109 76.3467 167.869 76.88C167.362 78.64 166.895 80.3867 166.469 82.12C166.069 83.88 165.682 85.5067 165.309 87C164.935 88.4933 164.562 89.76 164.189 90.8C163.789 91.84 163.362 92.5467 162.909 92.92C162.695 93.1067 162.469 93.2 162.229 93.2ZM185.632 83.76C183.926 83.76 182.606 83.2933 181.672 82.36C180.766 81.4533 180.312 80.3067 180.312 78.92C180.312 77.7467 180.606 76.5067 181.192 75.2C181.806 73.8667 182.619 72.6267 183.632 71.48C184.646 70.3067 185.766 69.36 186.992 68.64C188.219 67.92 189.446 67.56 190.672 67.56C191.366 67.56 192.019 67.7467 192.632 68.12C193.272 68.4667 193.592 69.1733 193.592 70.24C193.592 71.2533 193.299 72.2 192.712 73.08C192.126 73.96 191.339 74.7467 190.352 75.44C189.366 76.1333 188.272 76.7067 187.072 77.16C185.899 77.5867 184.712 77.8667 183.512 78C183.486 78.1067 183.459 78.2267 183.432 78.36C183.432 78.4667 183.432 78.6533 183.432 78.92C183.432 79.0533 183.446 79.2933 183.472 79.64C183.526 79.96 183.646 80.3067 183.832 80.68C184.019 81.0533 184.326 81.3733 184.752 81.64C185.179 81.9067 185.766 82.04 186.512 82.04C187.632 82.04 188.752 81.7333 189.872 81.12C191.019 80.48 192.086 79.64 193.072 78.6C194.086 77.56 194.926 76.4 195.592 75.12L196.392 75.76C195.672 77.36 194.739 78.76 193.592 79.96C192.472 81.16 191.219 82.0933 189.832 82.76C188.472 83.4267 187.072 83.76 185.632 83.76ZM183.952 76.52C184.646 76.44 185.419 76.2 186.272 75.8C187.126 75.4 187.939 74.8933 188.712 74.28C189.512 73.6667 190.166 73 190.672 72.28C191.179 71.5333 191.432 70.7867 191.432 70.04C191.432 69.7467 191.379 69.5467 191.272 69.44C191.166 69.3333 190.992 69.28 190.752 69.28C190.139 69.28 189.499 69.5067 188.832 69.96C188.166 70.3867 187.512 70.96 186.872 71.68C186.232 72.3733 185.659 73.1467 185.152 74C184.646 74.8533 184.246 75.6933 183.952 76.52ZM202.025 83.04C201.038 83.04 200.238 82.7733 199.625 82.24C199.012 81.7333 198.705 81.04 198.705 80.16C198.705 79.4133 198.892 78.6133 199.265 77.76C199.638 76.9067 200.012 76.0667 200.385 75.24C200.785 74.4133 200.985 73.68 200.985 73.04C200.985 72.4267 200.785 71.92 200.385 71.52C199.985 71.0933 199.518 70.7467 198.985 70.48C198.398 71.9467 197.732 73.3733 196.985 74.76C196.265 76.12 195.678 77.1867 195.225 77.96L194.625 76.8C194.998 76.1067 195.492 75.12 196.105 73.84C196.718 72.56 197.305 71.1333 197.865 69.56C197.598 69.2933 197.465 68.9333 197.465 68.48C197.465 67.7867 197.678 67.1333 198.105 66.52C198.532 65.9067 198.945 65.6 199.345 65.6C199.665 65.6 199.892 65.7867 200.025 66.16C200.185 66.5067 200.265 66.7467 200.265 66.88C200.265 67.0133 200.198 67.2533 200.065 67.6C199.958 67.9467 199.878 68.2 199.825 68.36C199.852 68.6533 200.078 68.9467 200.505 69.24C200.958 69.5067 201.465 69.8267 202.025 70.2C202.585 70.5733 203.078 71.04 203.505 71.6C203.932 72.16 204.145 72.8667 204.145 73.72C204.145 74.4933 203.972 75.28 203.625 76.08C203.278 76.88 202.932 77.6267 202.585 78.32C202.238 79.0133 202.065 79.6133 202.065 80.12C202.065 80.4933 202.158 80.7467 202.345 80.88C202.558 80.9867 202.798 81.04 203.065 81.04C203.705 81.04 204.372 80.8533 205.065 80.48C205.758 80.08 206.438 79.5733 207.105 78.96C207.772 78.3467 208.358 77.7067 208.865 77.04C209.372 76.3467 209.758 75.72 210.025 75.16L210.985 75.88C210.478 77.0267 209.745 78.16 208.785 79.28C207.825 80.3733 206.758 81.28 205.585 82C204.412 82.6933 203.225 83.04 202.025 83.04Z" fill="#F5F5F5"/>
<path d="M25.152 35.576C27.2 36.056 28.784 37.048 29.904 38.552C31.056 40.024 31.632 41.736 31.632 43.688C31.632 46.664 30.64 48.968 28.656 50.6C26.704 52.2 23.888 53 20.208 53H2.4V19.016H19.728C23.184 19.016 25.904 19.768 27.888 21.272C29.872 22.776 30.864 24.968 30.864 27.848C30.864 29.832 30.336 31.512 29.28 32.888C28.256 34.232 26.88 35.128 25.152 35.576ZM13.056 32.264H17.184C18.144 32.264 18.848 32.072 19.296 31.688C19.776 31.304 20.016 30.712 20.016 29.912C20.016 29.08 19.776 28.472 19.296 28.088C18.848 27.672 18.144 27.464 17.184 27.464H13.056V32.264ZM17.904 44.456C18.864 44.456 19.568 44.28 20.016 43.928C20.496 43.544 20.736 42.936 20.736 42.104C20.736 40.472 19.792 39.656 17.904 39.656H13.056V44.456H17.904ZM45.8685 19.016V53H35.2125V19.016H45.8685ZM72.4733 47.864H61.1453L59.4653 53H48.2812L60.7133 19.016H73.0013L85.3853 53H74.1533L72.4733 47.864ZM69.8813 39.848L66.8093 30.392L63.7373 39.848H69.8813ZM101.102 53.336C97.0383 53.336 93.6783 52.392 91.0223 50.504C88.3983 48.584 86.9743 45.784 86.7503 42.104H98.0782C98.2383 44.056 99.1023 45.032 100.67 45.032C101.246 45.032 101.726 44.904 102.11 44.648C102.526 44.36 102.734 43.928 102.734 43.352C102.734 42.552 102.302 41.912 101.438 41.432C100.574 40.92 99.2303 40.344 97.4062 39.704C95.2303 38.936 93.4223 38.184 91.9823 37.448C90.5743 36.712 89.3583 35.64 88.3343 34.232C87.3103 32.824 86.8143 31.016 86.8463 28.808C86.8463 26.6 87.4063 24.728 88.5263 23.192C89.6783 21.624 91.2303 20.44 93.1823 19.64C95.1663 18.84 97.3903 18.44 99.8543 18.44C104.014 18.44 107.31 19.4 109.742 21.32C112.206 23.24 113.502 25.944 113.63 29.432H102.158C102.126 28.472 101.886 27.784 101.438 27.368C100.99 26.952 100.446 26.744 99.8063 26.744C99.3583 26.744 98.9903 26.904 98.7023 27.224C98.4143 27.512 98.2703 27.928 98.2703 28.472C98.2703 29.24 98.6863 29.88 99.5182 30.392C100.382 30.872 101.742 31.464 103.598 32.168C105.742 32.968 107.502 33.736 108.878 34.472C110.286 35.208 111.502 36.232 112.526 37.544C113.55 38.856 114.062 40.504 114.062 42.488C114.062 44.568 113.55 46.44 112.526 48.104C111.502 49.736 110.014 51.016 108.062 51.944C106.11 52.872 103.79 53.336 101.102 53.336ZM128.462 19.016V53H117.806V19.016H128.462Z" fill="#08D1F8"/>
</svg>
